<mxfile host="Electron" agent="Mozilla/5.0 (X11; Linux x86_64) AppleWebKit/537.36 (KHTML, like Gecko) draw.io/26.0.16 Chrome/132.0.6834.196 Electron/34.2.0 Safari/537.36" version="26.0.16">
  <diagram name="Page-1" id="7095DOOgDtbwrPxQ6L0V">
    <mxGraphModel dx="1050" dy="622" grid="1" gridSize="10" guides="1" tooltips="1" connect="1" arrows="1" fold="1" page="1" pageScale="1" pageWidth="950" pageHeight="1100" math="0" shadow="0">
      <root>
        <mxCell id="0" />
        <mxCell id="1" parent="0" />
        <mxCell id="OX86i_Fwm5Xv8WFeqZAK-1" value="Location-related Metadata" style="rounded=0;whiteSpace=wrap;html=1;strokeWidth=2;perimeterSpacing=2;verticalAlign=middle;horizontal=1;spacing=5;" vertex="1" parent="1">
          <mxGeometry x="390" y="200" width="140" height="49" as="geometry" />
        </mxCell>
        <mxCell id="OX86i_Fwm5Xv8WFeqZAK-2" value="Inconsistencies" style="rounded=0;whiteSpace=wrap;html=1;strokeWidth=2;" vertex="1" parent="1">
          <mxGeometry x="277" y="344" width="120" height="40" as="geometry" />
        </mxCell>
        <mxCell id="OX86i_Fwm5Xv8WFeqZAK-3" value="Gaps" style="rounded=0;whiteSpace=wrap;html=1;strokeWidth=2;" vertex="1" parent="1">
          <mxGeometry x="525" y="344" width="120" height="40" as="geometry" />
        </mxCell>
        <mxCell id="OX86i_Fwm5Xv8WFeqZAK-4" value="" style="shape=flexArrow;endArrow=classic;html=1;rounded=0;strokeWidth=2;targetPerimeterSpacing=9;sourcePerimeterSpacing=11;" edge="1" parent="1" source="OX86i_Fwm5Xv8WFeqZAK-1" target="OX86i_Fwm5Xv8WFeqZAK-2">
          <mxGeometry width="50" height="50" relative="1" as="geometry">
            <mxPoint x="551" y="299" as="sourcePoint" />
            <mxPoint x="601" y="249" as="targetPoint" />
          </mxGeometry>
        </mxCell>
        <mxCell id="OX86i_Fwm5Xv8WFeqZAK-5" value="" style="shape=flexArrow;endArrow=classic;html=1;rounded=0;strokeWidth=2;sourcePerimeterSpacing=11;targetPerimeterSpacing=9;" edge="1" parent="1" source="OX86i_Fwm5Xv8WFeqZAK-1" target="OX86i_Fwm5Xv8WFeqZAK-3">
          <mxGeometry width="50" height="50" relative="1" as="geometry">
            <mxPoint x="445" y="249" as="sourcePoint" />
            <mxPoint x="377" y="329" as="targetPoint" />
          </mxGeometry>
        </mxCell>
        <mxCell id="OX86i_Fwm5Xv8WFeqZAK-6" value="European Nucleotide Database" style="rounded=0;whiteSpace=wrap;html=1;strokeWidth=2;perimeterSpacing=2;spacing=5;" vertex="1" parent="1">
          <mxGeometry x="390" y="56" width="140" height="50" as="geometry" />
        </mxCell>
        <mxCell id="OX86i_Fwm5Xv8WFeqZAK-7" value="" style="shape=flexArrow;endArrow=classic;html=1;rounded=0;strokeWidth=2;targetPerimeterSpacing=7;sourcePerimeterSpacing=7;" edge="1" parent="1" source="OX86i_Fwm5Xv8WFeqZAK-6" target="OX86i_Fwm5Xv8WFeqZAK-1">
          <mxGeometry width="50" height="50" relative="1" as="geometry">
            <mxPoint x="445" y="249" as="sourcePoint" />
            <mxPoint x="377" y="329" as="targetPoint" />
          </mxGeometry>
        </mxCell>
        <mxCell id="OX86i_Fwm5Xv8WFeqZAK-8" value="Parsing publication information" style="rounded=0;whiteSpace=wrap;html=1;strokeWidth=2;perimeterSpacing=0;" vertex="1" parent="1">
          <mxGeometry x="525" y="478" width="120" height="50" as="geometry" />
        </mxCell>
        <mxCell id="OX86i_Fwm5Xv8WFeqZAK-10" value="&amp;nbsp;Reverse Geocoding coordinates" style="rounded=0;whiteSpace=wrap;html=1;strokeWidth=2;perimeterSpacing=0;" vertex="1" parent="1">
          <mxGeometry x="277" y="478" width="120" height="50" as="geometry" />
        </mxCell>
        <mxCell id="OX86i_Fwm5Xv8WFeqZAK-11" value="" style="shape=flexArrow;endArrow=classic;html=1;rounded=0;strokeWidth=2;targetPerimeterSpacing=9;sourcePerimeterSpacing=11;" edge="1" parent="1" source="OX86i_Fwm5Xv8WFeqZAK-2" target="OX86i_Fwm5Xv8WFeqZAK-10">
          <mxGeometry width="50" height="50" relative="1" as="geometry">
            <mxPoint x="433" y="262" as="sourcePoint" />
            <mxPoint x="372" y="331" as="targetPoint" />
          </mxGeometry>
        </mxCell>
        <mxCell id="OX86i_Fwm5Xv8WFeqZAK-12" value="" style="shape=flexArrow;endArrow=classic;html=1;rounded=0;strokeWidth=2;targetPerimeterSpacing=9;sourcePerimeterSpacing=11;" edge="1" parent="1" source="OX86i_Fwm5Xv8WFeqZAK-3" target="OX86i_Fwm5Xv8WFeqZAK-8">
          <mxGeometry width="50" height="50" relative="1" as="geometry">
            <mxPoint x="355" y="391" as="sourcePoint" />
            <mxPoint x="355" y="471" as="targetPoint" />
          </mxGeometry>
        </mxCell>
        <mxCell id="OX86i_Fwm5Xv8WFeqZAK-13" value="Country information retrived" style="rounded=0;whiteSpace=wrap;html=1;strokeWidth=2;perimeterSpacing=0;" vertex="1" parent="1">
          <mxGeometry x="525" y="620" width="120" height="50" as="geometry" />
        </mxCell>
        <mxCell id="OX86i_Fwm5Xv8WFeqZAK-14" value="Misalignment detected" style="rounded=0;whiteSpace=wrap;html=1;strokeWidth=2;perimeterSpacing=0;" vertex="1" parent="1">
          <mxGeometry x="276" y="620" width="120" height="50" as="geometry" />
        </mxCell>
        <mxCell id="OX86i_Fwm5Xv8WFeqZAK-15" value="" style="shape=flexArrow;endArrow=classic;html=1;rounded=0;strokeWidth=2;targetPerimeterSpacing=9;sourcePerimeterSpacing=11;" edge="1" parent="1" source="OX86i_Fwm5Xv8WFeqZAK-10" target="OX86i_Fwm5Xv8WFeqZAK-14">
          <mxGeometry width="50" height="50" relative="1" as="geometry">
            <mxPoint x="290" y="550" as="sourcePoint" />
            <mxPoint x="290" y="624" as="targetPoint" />
          </mxGeometry>
        </mxCell>
        <mxCell id="OX86i_Fwm5Xv8WFeqZAK-16" value="" style="shape=flexArrow;endArrow=classic;html=1;rounded=0;strokeWidth=2;targetPerimeterSpacing=9;sourcePerimeterSpacing=11;" edge="1" parent="1" source="OX86i_Fwm5Xv8WFeqZAK-8" target="OX86i_Fwm5Xv8WFeqZAK-13">
          <mxGeometry width="50" height="50" relative="1" as="geometry">
            <mxPoint x="347" y="549" as="sourcePoint" />
            <mxPoint x="346" y="621" as="targetPoint" />
          </mxGeometry>
        </mxCell>
        <mxCell id="OX86i_Fwm5Xv8WFeqZAK-17" value="Curated Metadata exported as JSON &amp;amp; CSV" style="rounded=0;whiteSpace=wrap;html=1;strokeWidth=2;perimeterSpacing=2;verticalAlign=middle;horizontal=1;spacing=5;" vertex="1" parent="1">
          <mxGeometry x="370" y="760" width="170" height="49" as="geometry" />
        </mxCell>
        <mxCell id="OX86i_Fwm5Xv8WFeqZAK-18" value="" style="shape=flexArrow;endArrow=classic;html=1;rounded=0;strokeWidth=2;targetPerimeterSpacing=9;sourcePerimeterSpacing=11;" edge="1" parent="1" source="OX86i_Fwm5Xv8WFeqZAK-14" target="OX86i_Fwm5Xv8WFeqZAK-17">
          <mxGeometry width="50" height="50" relative="1" as="geometry">
            <mxPoint x="437" y="272" as="sourcePoint" />
            <mxPoint x="373" y="345" as="targetPoint" />
          </mxGeometry>
        </mxCell>
        <mxCell id="OX86i_Fwm5Xv8WFeqZAK-19" value="" style="shape=flexArrow;endArrow=classic;html=1;rounded=0;strokeWidth=2;targetPerimeterSpacing=9;sourcePerimeterSpacing=11;" edge="1" parent="1" source="OX86i_Fwm5Xv8WFeqZAK-13" target="OX86i_Fwm5Xv8WFeqZAK-17">
          <mxGeometry width="50" height="50" relative="1" as="geometry">
            <mxPoint x="377" y="691" as="sourcePoint" />
            <mxPoint x="435" y="759" as="targetPoint" />
          </mxGeometry>
        </mxCell>
      </root>
    </mxGraphModel>
  </diagram>
</mxfile>
